<svg xmlns="http://www.w3.org/2000/svg" width="60" height="60" viewBox="0 0 60 60">
  <path
    d="M29.9924 60C23.7406 59.9917 17.6472 58.0336 12.562 54.3987C7.4768 50.7638 3.65335 45.6333 1.62484 39.7229C-0.403676 33.8124 -0.536116 27.4165 1.24599 21.4272C3.02809 15.4379 6.63589 10.1538 11.5662 6.31168C15.3386 3.38176 19.7561 1.39412 24.4517 0.514011C29.1473 -0.366099 33.9852 -0.11326 38.5633 1.25151C43.1415 2.61628 47.3275 5.05356 50.7735 8.36073C54.2195 11.6679 56.8259 15.7494 58.3761 20.266C59.9262 24.7826 60.3752 29.6037 59.6859 34.3287C58.9966 39.0536 57.1888 43.5459 54.4128 47.432C51.6367 51.3181 47.9728 54.4857 43.7253 56.6717C39.4779 58.8576 34.7698 59.9987 29.9924 60ZM21.7198 26.5551L24.8382 38.1869C25.772 41.6695 25.8647 42.2675 23.6655 42.9858L23.8687 43.7432L35.9421 40.5093L35.7389 39.7519C35.187 39.8939 34.6215 39.9769 34.052 39.9993C33.7521 40.0257 33.4511 39.9631 33.1866 39.8195C32.9222 39.6758 32.7059 39.4575 32.5649 39.1917C32.1334 38.2949 31.813 37.3488 31.6105 36.3745L29.3253 27.8483C29.0553 26.8019 28.6751 25.787 28.191 24.8207L32.1387 23.7624L31.8078 22.5268L27.5225 23.6744C27.2234 23.2041 26.9269 22.7907 26.639 22.3912C25.9898 21.6039 25.4935 20.7023 25.1757 19.7328C24.9845 19.1081 25.0114 18.437 25.2519 17.8296C25.4924 17.2222 25.9322 16.7145 26.4994 16.3897L28.1453 18.1697C29.1182 19.2142 29.9474 19.6593 30.9163 19.6593C31.2207 19.6568 31.5235 19.6146 31.817 19.5337C33.3015 19.1368 34.001 18.0493 33.637 16.6986C33.2902 15.4042 31.9302 14.6316 29.997 14.6316C29.2289 14.6382 28.4648 14.7452 27.7244 14.9497C25.0507 15.6654 23.1453 16.8369 22.0606 18.431C20.8634 20.1905 20.6384 22.5069 21.3915 25.3168L19.097 25.9313L19.4279 27.167L21.7217 26.5525L21.7198 26.5551ZM39.3378 31.4903C39.0198 31.4905 38.7028 31.5278 38.3934 31.6014C37.3817 31.8885 36.5232 32.5615 36.0033 33.4752C35.4833 34.389 35.3435 35.4704 35.6138 36.4863C35.6138 36.5002 35.6198 36.5141 35.6238 36.528V36.5372C35.7517 37.0484 35.9794 37.5293 36.2936 37.9523C36.6078 38.3754 37.0025 38.7323 37.455 39.0027C37.9074 39.2731 38.4089 39.4515 38.9305 39.5279C39.4521 39.6043 39.9836 39.577 40.4947 39.4477C41.4896 39.1505 42.333 38.4842 42.8522 37.5854C43.3714 36.6866 43.5269 35.6234 43.2869 34.6137C43.0766 33.7156 42.5637 32.9171 41.8342 32.3522C41.1213 31.797 40.2443 31.4938 39.3405 31.4903H39.3378Z"
    fill="#252a2e" />
</svg>